<svg width="184.555" xmlns="http://www.w3.org/2000/svg" height="184.798" id="screenshot-1726ead2-e8c0-8050-8007-202717354711" viewBox="392 208.757 184.555 184.798" style="-webkit-print-color-adjust::exact" xmlns:xlink="http://www.w3.org/1999/xlink" fill="none" version="1.1">
  <g id="shape-1726ead2-e8c0-8050-8007-202717354711" rx="0" ry="0">
    <g id="shape-1726ead2-e8c0-8050-8007-202686e72258" rx="0" ry="0">
      <g id="shape-1726ead2-e8c0-8050-8007-2025d7302c0a">
        <g class="fills" id="fills-1726ead2-e8c0-8050-8007-2025d7302c0a">
          <rect rx="0" ry="0" x="469.27743494484446" y="185.7774349448446" transform="matrix(0.707107, 0.707107, -0.707107, 0.707107, 354.876894, -254.193741)" width="30.00000000000017" height="230.99999999999986" style="fill:#00d4ff;fill-opacity:1">
          </rect>
        </g>
      </g>
      <g id="shape-1726ead2-e8c0-8050-8007-2025f6553f67">
        <g class="fills" id="fills-1726ead2-e8c0-8050-8007-2025f6553f67">
          <rect rx="0" ry="0" x="469.27743494484423" y="185.53479425772525" transform="matrix(0.707107, -0.707107, 0.707107, 0.707107, -71.022168, 430.606908)" width="30.00000000000002" height="230.99999999999977" style="fill:#00d4ff;fill-opacity:1">
          </rect>
        </g>
      </g>
    </g>
    <g id="shape-1726ead2-e8c0-8050-8007-20264998feba">
      <g class="fills" id="fills-1726ead2-e8c0-8050-8007-20264998feba">
        <path d="M484,209C533.67236328125,209,574,249.32763671875,574,299C574,348.67236328125,533.67236328125,389,484,389C434.32763671875,389,394,348.67236328125,394,299C394,249.32763671875,434.32763671875,209,484,209M484,239C450.8851013183594,239,424,265.8851013183594,424,299C424,332.1148986816406,450.8851013183594,359,484,359C517.1149291992188,359,544,332.1148986816406,544,299C544,265.8851013183594,517.1149291992188,239,484,239" style="fill:#ff7ab6;fill-opacity:1">
        </path>
      </g>
    </g>
  </g>
</svg>